<svg xmlns="http://www.w3.org/2000/svg" width="344.817" height="438.89" viewBox="0 0 344.817 438.89">
  <g id="clipboard" transform="translate(-47.037 0)">
    <g id="Group_4" data-name="Group 4">
      <g id="Group_3" data-name="Group 3">
        <g id="Group_2" data-name="Group 2">
          <path id="Path_4" data-name="Path 4" d="M347.968,57.5H308.262V39.74c0-5.747-6.269-8.359-12.016-8.359H265.422c-7.314-20.9-25.6-31.347-46.5-31.347a47.542,47.542,0,0,0-46.5,31.347h-30.3c-5.747,0-11.494,2.612-11.494,8.359V57.5H90.923A44.409,44.409,0,0,0,47.037,99.821V399.184c0,22.988,20.9,39.706,43.886,39.706H347.968c22.988,0,43.886-16.718,43.886-39.706V99.822A44.409,44.409,0,0,0,347.968,57.5ZM151.527,52.279h28.735a11.5,11.5,0,0,0,9.927-9.4,30.3,30.3,0,0,1,28.735-23.51,29.778,29.778,0,0,1,28.212,23.51,11.494,11.494,0,0,0,10.449,9.4h29.78v41.8H151.527ZM370.956,399.185c0,11.494-11.494,18.808-22.988,18.808H90.923c-11.494,0-22.988-7.314-22.988-18.808V99.822A23.509,23.509,0,0,1,90.923,78.4h39.706v26.645a10.972,10.972,0,0,0,11.494,9.927H296.245a11.493,11.493,0,0,0,12.016-9.927V78.4h39.706a23.511,23.511,0,0,1,22.988,21.42V399.185Z" fill="#ea2096"/>
          <path id="Path_5" data-name="Path 5" d="M179.217,233.569a10.449,10.449,0,0,0-14.629-.522l-33.437,31.869-14.106-14.629a10.45,10.45,0,0,0-14.629-.522,10.971,10.971,0,0,0,0,15.151l21.42,21.943a9.4,9.4,0,0,0,7.314,3.135,10.446,10.446,0,0,0,7.314-3.135L179.215,248.2a9.925,9.925,0,0,0,.6-14.025C179.628,233.962,179.427,233.761,179.217,233.569Z" fill="#ea2096"/>
          <path id="Path_6" data-name="Path 6" d="M329.16,256.034H209a10.449,10.449,0,0,0,0,20.9H329.16a10.449,10.449,0,1,0,0-20.9Z" fill="#ea2096"/>
          <path id="Path_7" data-name="Path 7" d="M179.217,149.977a10.449,10.449,0,0,0-14.629-.522l-33.437,31.869L117.045,166.7a10.449,10.449,0,0,0-14.629-.522,10.971,10.971,0,0,0,0,15.151l21.42,21.943a9.4,9.4,0,0,0,7.314,3.135,10.446,10.446,0,0,0,7.314-3.135l40.751-38.661a9.925,9.925,0,0,0,.6-14.025C179.628,150.37,179.427,150.169,179.217,149.977Z" fill="#ea2096"/>
          <path id="Path_8" data-name="Path 8" d="M329.16,172.442H209a10.449,10.449,0,1,0,0,20.9H329.16a10.449,10.449,0,0,0,0-20.9Z" fill="#ea2096"/>
          <path id="Path_9" data-name="Path 9" d="M179.217,317.16a10.45,10.45,0,0,0-14.629-.522l-33.437,31.869-14.106-14.629a10.45,10.45,0,0,0-14.629-.522,10.971,10.971,0,0,0,0,15.151l21.42,21.943a9.4,9.4,0,0,0,7.314,3.135,10.446,10.446,0,0,0,7.314-3.135l40.751-38.661a9.925,9.925,0,0,0,.6-14.025C179.628,317.554,179.427,317.353,179.217,317.16Z" fill="#ea2096"/>
          <path id="Path_10" data-name="Path 10" d="M329.16,339.626H209a10.449,10.449,0,1,0,0,20.9H329.16a10.449,10.449,0,0,0,0-20.9Z" fill="#ea2096"/>
        </g>
      </g>
    </g>
  </g>
</svg>
