<svg xmlns="http://www.w3.org/2000/svg" width="15.337" height="13.805" viewBox="0 0 15.337 13.805">
  <path id="coins" d="M15.329,7.6c-.025-.437-.545-.779-1.585-1.039a.576.576,0,0,0,.055-.239V4.533C13.7,3.044,7.6,3,6.9,3S.1,3.044,0,4.533V6.322c0,.485.628.865,1.56,1.148a.56.56,0,0,0-.023.13V9.385C.529,9.643.027,9.98,0,10.41V12.2c0,.338.306.625.8.864a.568.568,0,0,0-.034.159v1.788c0,.85,1.916,1.378,4.042,1.624a.235.235,0,0,0,.047.009h.014c.41.046.826.082,1.239.108l.025,0h.013c.523.032,1.038.048,1.52.048s1-.016,1.52-.048H9.2a.043.043,0,0,0,.025,0c.412-.026.829-.062,1.239-.108h.014a.235.235,0,0,0,.047-.009c2.126-.246,4.04-.774,4.042-1.624v-1.79c-.018-.313-.285-.575-.812-.793a.571.571,0,0,0,.05-.23v-1.67c.917-.282,1.532-.66,1.533-1.141V7.6ZM1.789,7.005V5.771c.239.064.5.123.767.177V7.194l-.1-.02c-.136-.03-.269-.061-.4-.094-.092-.024-.184-.05-.272-.075Zm11.44-.56h-.007l-.093.072a2.485,2.485,0,0,1-.608.314V5.614a3.8,3.8,0,0,0,.767-.352V6.32a.2.2,0,0,1-.059.125Zm-6.8,5.75H6.64v1.277H6.429l-.349-.008H6.037q-.209-.007-.415-.017V12.17q.384.018.771.025Zm.973,0q.386-.007.771-.025v1.276l-.165.008q-.23.01-.467.016H7.152V12.2h.211Zm1.456,1.2-.17.013V12.14q.388-.026.767-.062v1.269c-.158.017-.319.032-.485.046Zm1.107-1.379q.4-.048.767-.108V13.17q-.361.064-.767.117Zm-5.488,1.34L4.4,13.353l-.055-.006V12.079q.376.036.767.062v1.273C4.9,13.4,4.684,13.381,4.477,13.361Zm-.644-1.338v1.264q-.4-.053-.767-.117V11.915Q3.437,11.975,3.833,12.023Zm7.41,1.048V11.824c.271-.053.528-.112.767-.177v1.234Q11.668,12.982,11.243,13.071ZM6.433,6.317h.211V7.6c-.344,0-.686-.012-1.022-.029V6.292q.384.018.771.025Zm.973,0q.386-.007.771-.025V7.567l-.129.007H8.037c-.171.008-.346.013-.523.017H7.155V6.321h.211ZM8.939,9.383q.386-.007.771-.025v1.275c-.336.017-.677.026-1.022.029V9.387H8.9ZM6.477,10.591q-.245-.019-.479-.042l-.1-.01h-.02V9.268q.376.036.767.062V10.6H6.582Zm-1.585-.183c-.1-.016-.2-.033-.293-.05V9.1q.371.06.767.108v1.264c-.156-.021-.309-.042-.456-.065ZM7.966,9.384h.211V10.66H7.749c-.192,0-.38-.012-.564-.021h-.03V9.359q.384.018.771.025Zm2.572,1.2h-.027c-.1.008-.194.013-.29.02V9.329q.388-.026.767-.062v1.268c-.149.016-.3.031-.45.044ZM4.344,7.469V6.2q.376.036.767.062V7.535C4.85,7.517,4.594,7.5,4.344,7.469Zm5.111,0q-.37.039-.767.068V6.263q.388-.026.767-.062Zm.511-1.323q.4-.048.767-.108V7.291c-.242.043-.5.082-.767.118Zm1.278,1.046V5.947c.271-.053.528-.112.767-.177V7c-.23.069-.488.133-.768.192ZM3.833,6.146V7.409L3.68,7.39l-.1-.014q-.222-.032-.434-.068l-.084-.015V6.038q.375.062.771.108Zm.256,2.867v1.245q-.424-.091-.767-.192V8.837c.238.063.5.123.766.176Zm8.153,1.35c-.112.019-.225.039-.342.056l-.2.03-.2.026V9.212q.4-.048.767-.108v1.255ZM2.811,8.681V9.895a1.594,1.594,0,0,1-.745-.455l-.017-.029a.161.161,0,0,1,0-.024V8.329a3.8,3.8,0,0,0,.762.352Zm-.256,3.143v1.247Q2.2,13,1.907,12.915l-.094-.026-.025-.007V11.648C2.027,11.712,2.284,11.771,2.555,11.824Zm.767,2.811v1.247c-.283-.06-.539-.124-.767-.189V14.458Q2.914,14.555,3.322,14.635Zm.511.091q.371.06.767.108V16.1q-.4-.053-.767-.117Zm1.278.163q.376.036.767.062v1.274q-.4-.028-.767-.067Zm1.278.091Q6.773,15,7.16,15h.251v1.277q-.53,0-1.022-.03V14.98Zm1.533.028h.252q.386-.007.771-.025v1.276q-.492.024-1.022.03Zm1.533-.057q.388-.026.767-.062v1.269q-.368.039-.767.067Zm1.278-.117q.4-.048.767-.108v1.255q-.361.064-.767.117Zm1.278-.2c.271-.053.528-.112.767-.177v1.234q-.342.1-.767.189Zm1.25-2.354-.087.076a2.286,2.286,0,0,1-.652.353V11.492a3.8,3.8,0,0,0,.767-.352V12.2a.163.163,0,0,1-.029.081Zm.172-2.178c-.127.036-.262.069-.4.1l-.195.044-.061.013V9.014c.271-.053.528-.112.767-.177v1.234ZM.511,6.321V5.263a3.8,3.8,0,0,0,.767.352V6.838c-.5-.187-.766-.373-.767-.517Zm0,5.877V11.14a3.8,3.8,0,0,0,.767.352V12.71l-.146-.057c-.4-.163-.62-.326-.621-.453Zm.767,2.811V13.951a3.8,3.8,0,0,0,.767.352v1.223c-.5-.187-.767-.373-.767-.517Zm12.01.517V14.3a3.8,3.8,0,0,0,.767-.352v1.057c0,.147-.271.334-.768.521ZM14.054,9.9V8.681a3.8,3.8,0,0,0,.767-.352V9.387C14.82,9.53,14.551,9.718,14.054,9.9Z" transform="translate(0 -3)" fill="#ea2096"/>
</svg>
