<svg id="dashboard" xmlns="http://www.w3.org/2000/svg" width="12.539" height="12.541" viewBox="0 0 12.539 12.541">
  <path id="Path_1" d="M4.833,0H.914A.915.915,0,0,0,0,.914V3.265a.915.915,0,0,0,.914.914H4.833a.915.915,0,0,0,.914-.914V.914A.915.915,0,0,0,4.833,0Zm0,0" fill="#ea2096"/>
  <path id="Path_2" d="M4.833,213.332H.914a.915.915,0,0,0-.914.914v5.486a.915.915,0,0,0,.914.914H4.833a.915.915,0,0,0,.914-.914v-5.486a.915.915,0,0,0-.914-.914Zm0,0" transform="translate(0 -208.108)" fill="#ea2096"/>
  <path id="Path_3" d="M282.165,341.332h-3.918a.915.915,0,0,0-.914.914V344.6a.915.915,0,0,0,.914.914h3.918a.915.915,0,0,0,.914-.914v-2.351a.915.915,0,0,0-.914-.917Zm0,0" transform="translate(-270.54 -332.973)" fill="#ea2096"/>
  <path id="Path_4" d="M282.165,0h-3.918a.915.915,0,0,0-.914.914V6.4a.915.915,0,0,0,.914.914h3.918a.915.915,0,0,0,.914-.914V.914A.915.915,0,0,0,282.165,0Zm0,0" transform="translate(-270.54)" fill="#ea2096"/>
</svg>
