<svg xmlns="http://www.w3.org/2000/svg" width="14.659" height="15.276" viewBox="0 0 14.659 15.276">
  <g id="discount" transform="translate(-10.362 -0.001)">
    <g id="Group_3" transform="translate(10.359 -0.002)">
      <g id="Group_2">
        <path id="Path_16" d="M24.311,7.835a.448.448,0,0,1,0-.4l.57-1.166a1.326,1.326,0,0,0-.572-1.761L23.163,3.9a.448.448,0,0,1-.233-.32L22.706,2.3a1.326,1.326,0,0,0-1.5-1.088L19.923,1.4a.448.448,0,0,1-.376-.122l-.932-.9a1.326,1.326,0,0,0-1.852,0l-.932.9a.448.448,0,0,1-.376.122L14.17,1.218a1.326,1.326,0,0,0-1.5,1.088l-.224,1.278a.448.448,0,0,1-.233.32l-1.146.608A1.326,1.326,0,0,0,10.5,6.273l.57,1.166a.448.448,0,0,1,0,.4L10.5,9a1.326,1.326,0,0,0,.572,1.761l1.146.608a.448.448,0,0,1,.233.32l.224,1.278a1.325,1.325,0,0,0,1.307,1.1,1.363,1.363,0,0,0,.191-.013l1.285-.182A.448.448,0,0,1,15.83,14l.932.9a1.326,1.326,0,0,0,1.852,0l.933-.9a.448.448,0,0,1,.376-.122l1.285.182a1.326,1.326,0,0,0,1.5-1.088l.224-1.278a.448.448,0,0,1,.233-.32l1.146-.608A1.326,1.326,0,0,0,24.881,9ZM15.926,3.672a1.615,1.615,0,1,1-1.615,1.615,1.615,1.615,0,0,1,1.615-1.615Zm-.834,7.184a.441.441,0,0,1-.623-.623l5.815-5.815a.441.441,0,1,1,.623.623Zm4.358.746a1.615,1.615,0,1,1,1.615-1.615A1.615,1.615,0,0,1,19.45,11.6Z" transform="translate(-10.359 0.002)" fill="#ea2096"/>
      </g>
    </g>
    <g id="Group_5" transform="translate(18.716 9.252)">
      <g id="Group_4">
        <path id="Path_17" d="M291.186,310.141a.734.734,0,1,0,.734.734.734.734,0,0,0-.734-.734Z" transform="translate(-290.452 -310.141)" fill="#ea2096"/>
      </g>
    </g>
    <g id="Group_7" transform="translate(15.192 4.553)">
      <g id="Group_6">
        <path id="Path_18" d="M173.067,152.646a.734.734,0,1,0,.734.734A.734.734,0,0,0,173.067,152.646Z" transform="translate(-172.333 -152.646)" fill="#ea2096"/>
      </g>
    </g>
  </g>
</svg>
