<svg xmlns="http://www.w3.org/2000/svg" width="15.714" height="15.691" viewBox="0 0 15.714 15.691">
  <g id="fast" transform="translate(0.023 0)">
    <path id="Path_11" d="M23.219,158.254a1.38,1.38,0,0,1-.7-1.2,3.835,3.835,0,0,1,3.831-3.831h1.579L28.008,152H19.063l.643,10.6a.46.46,0,0,0,.459.432h2.821a2.286,2.286,0,0,1-.461-1.379,1.381,1.381,0,0,1,.911-1.3,1.832,1.832,0,0,1,0-2c-.15-.034-.236-.067-.217-.1Zm0,0" transform="translate(-18.48 -147.342)" fill="#ea2096"/>
    <path id="Path_12" d="M5.055,3.739h4.6a.46.46,0,0,0,0-.919H5.9L7.143.919h1.59a.46.46,0,1,0,0-.919H6.894a.459.459,0,0,0-.385.209L4.806,2.82H.458a.46.46,0,1,0,0,.919h4.6Zm0,0" fill="#ea2096"/>
    <path id="Path_13" d="M162,224.911a.46.46,0,0,0,.46.46h9.807a.46.46,0,0,0,.46-.46A2.915,2.915,0,0,0,169.815,222h-4.9A2.915,2.915,0,0,0,162,224.911Zm0,0" transform="translate(-157.036 -215.196)" fill="#ea2096"/>
    <path id="Path_14" d="M182.919,362a.919.919,0,0,0,0,1.839h7.662a.919.919,0,0,0,0-1.839Zm0,0" transform="translate(-176.424 -350.906)" fill="#ea2096"/>
    <path id="Path_15" d="M172.267,452H162.46a.46.46,0,0,0-.46.46,1.381,1.381,0,0,0,1.379,1.379h7.968a1.381,1.381,0,0,0,1.379-1.379.46.46,0,0,0-.459-.46Zm0,0" transform="translate(-157.036 -438.148)" fill="#ea2096"/>
  </g>
</svg>
