<?xml version="1.0"?>
<svg xmlns="http://www.w3.org/2000/svg" xmlns:xlink="http://www.w3.org/1999/xlink" xmlns:svgjs="http://svgjs.com/svgjs" version="1.1" width="512" height="512" x="0" y="0" viewBox="0 0 510.005 510.005" style="enable-background:new 0 0 512 512" xml:space="preserve" class=""><g><g xmlns="http://www.w3.org/2000/svg"><path d="m282.222 230.678c34.742 32.684 69.121 51.685 70.568 52.477l7.259 3.98 7.236-4.021c1.445-.803 35.795-20.041 70.515-52.832 39.646-37.445 72.2-85.537 72.2-140.28 0-49.626-40.374-90-90-90-22.557 0-43.66 8.176-60 22.873-16.34-14.697-37.443-22.873-60-22.873-49.626 0-90 40.374-90 90 0 26.854 7.777 53.892 23.115 80.363 11.928 20.588 28.45 40.88 49.107 60.313zm17.778-200.676c19.047 0 36.545 8.751 48.007 24.008l11.993 15.966 11.993-15.966c11.462-15.257 28.96-24.008 48.007-24.008 33.084 0 60 26.916 60 60 0 81.493-93.059 145.645-120.044 162.528-27.005-16.719-119.956-80.263-119.956-162.528 0-33.084 26.916-60 60-60z" fill="#ea2096" data-original="#000000" style=""/><path d="m461.661 322.299c-4.05.073-8.136.731-12.488 2.013l-104.343 30.692c-1.758-21.881-17.272-40.157-38.957-45.272-.849-.217 10.326 2.637-92.056-23.51-9.602-2.059-19.599-1.504-28.829 1.573-3.57 1.167 14.22-4.649-42.04 13.745-22.174 7.392-34.714 11.567-52.947 12.944v-44.483h-90.001v240h90v-45h30c18.538 0 36.985 2.539 54.832 7.547.101.026 137.596 35.832 138.348 36.008 14.671 3.432 30.508.365 43.434-8.526 134.936-92.709 122.79-84.708 129.737-89.015l1.254-.779c26.15-16.307 30.09-52.754 8.187-74.274-9.062-8.905-21.485-13.854-34.131-13.663zm-401.661 157.703h-30v-180h30zm411.735-95.224-1.196.742c-8.234 5.11 3.307-2.406-130.93 89.794-5.933 4.081-13.388 5.773-20.591 3.778l-136.221-35.467c-20.441-5.722-41.568-8.623-62.798-8.623h-29.999v-90.462c23.365-1.52 39.036-6.739 62.434-14.538l41.954-13.717c4.152-1.386 8.602-1.655 12.892-.781.95.242-11.01-2.813 91.636 23.411 17.145 3.981 21.75 25.97 8.09 36.636-5.081 3.967-11.584 5.344-17.835 3.782l-75.531-18.883-7.276 29.104 75.531 18.883c20.656 5.166 41.429-3.023 53.377-19.349 127.828-37.415 123.312-36.729 126.923-36.793 9.605-.153 17.807 7.61 17.807 17.578-.002 6.106-3.093 11.678-8.267 14.905z" fill="#ea2096" data-original="#000000" style=""/></g></g></svg>
