<svg id="location" xmlns="http://www.w3.org/2000/svg" width="10.857" height="16.25" viewBox="0 0 10.857 16.25">
  <path id="Path_8" d="M100.043,83.406a2.406,2.406,0,1,0-2.406,2.406,2.406,2.406,0,0,0,2.406-2.406Zm0,0" transform="translate(-92.208 -78.429)" fill="#ea2096"/>
  <path id="Path_9" d="M19.207,13.394C19.58,12.908,21.765,9.9,22.5,8.9a6.653,6.653,0,0,0,1.682-3.924,4.976,4.976,0,1,0-9.952,0A6.653,6.653,0,0,0,15.913,8.9l3.294,4.493ZM15.849,4.977a3.358,3.358,0,1,1,3.358,3.358A3.358,3.358,0,0,1,15.849,4.977Zm0,0" transform="translate(-13.779)" fill="#ea2096"/>
  <path id="Path_10" d="M7.256,394.2l-1.845,2.469L3.6,394.2H1.41L0,397.942H10.857L9.447,394.2Zm0,0" transform="translate(0 -381.692)" fill="#ea2096"/>
</svg>
