<svg xmlns="http://www.w3.org/2000/svg" width="13.036" height="16.466" viewBox="0 0 13.036 16.466">
  <g id="notes" transform="translate(-2)">
    <path id="Path_26" d="M6.436,3.773a.686.686,0,0,1-.686-.686V.686a.686.686,0,0,1,1.372,0v2.4a.686.686,0,0,1-.686.687Z" transform="translate(-1.177)" fill="#ea2096"/>
    <path id="Path_27" d="M11.186,3.773a.686.686,0,0,1-.686-.686V.686a.686.686,0,1,1,1.372,0v2.4a.686.686,0,0,1-.686.687Z" transform="translate(-2.668)" fill="#ea2096"/>
    <path id="Path_28" d="M15.936,3.773a.686.686,0,0,1-.686-.686V.686a.686.686,0,0,1,1.372,0v2.4a.686.686,0,0,1-.686.687Z" transform="translate(-4.16)" fill="#ea2096"/>
    <path id="Path_29" d="M13.149,2.25H3.887A1.888,1.888,0,0,0,2,4.137V15.285a1.888,1.888,0,0,0,1.887,1.887h9.262a1.888,1.888,0,0,0,1.887-1.887V4.137A1.888,1.888,0,0,0,13.149,2.25ZM5.43,6.2H8.86a.686.686,0,0,1,0,1.372H5.43a.686.686,0,0,1,0-1.372Zm6.861,6.861H5.43a.686.686,0,0,1,0-1.372h6.861a.686.686,0,0,1,0,1.372Zm0-2.744H5.43a.686.686,0,1,1,0-1.372h6.861a.686.686,0,1,1,0,1.372Z" transform="translate(0 -0.706)" fill="#ea2096"/>
  </g>
</svg>
