<svg xmlns="http://www.w3.org/2000/svg" width="12.166" height="14.594" viewBox="0 0 12.166 14.594">
  <g id="notification" transform="translate(-42.673)">
    <g id="Group_9" transform="translate(42.675)">
      <g id="Group_8">
        <path id="Path_19" d="M54.793,12.309l-1.044-1.74a5.17,5.17,0,0,1-.737-2.66V6.385a4.262,4.262,0,0,0-3.04-4.077V1.216a1.216,1.216,0,1,0-2.432,0V2.308A4.262,4.262,0,0,0,44.5,6.385V7.909a5.173,5.173,0,0,1-.736,2.659l-1.044,1.74a.3.3,0,0,0,.26.461H54.532a.3.3,0,0,0,.261-.46Z" transform="translate(-42.675)" fill="#ea2096"/>
      </g>
    </g>
    <g id="Group_11" transform="translate(46.841 13.378)">
      <g id="Group_10">
        <path id="Path_20" d="M188.815,469.333a2.116,2.116,0,0,0,3.83,0Z" transform="translate(-188.815 -469.333)" fill="#ea2096"/>
      </g>
    </g>
  </g>
</svg>
