<svg xmlns="http://www.w3.org/2000/svg" width="14.318" height="14.318" viewBox="0 0 14.318 14.318">
  <g id="profile_user" transform="translate(-0.001 0.001)">
    <path id="Path_11" data-name="Path 11" d="M7.159,0a7.159,7.159,0,1,0,7.16,7.16A7.159,7.159,0,0,0,7.159,0Zm0,2.141A2.368,2.368,0,1,1,4.792,4.51,2.368,2.368,0,0,1,7.159,2.141Zm0,10.306a5.254,5.254,0,0,1-3.421-1.262,1.009,1.009,0,0,1-.354-.767,2.388,2.388,0,0,1,2.4-2.387H8.537a2.385,2.385,0,0,1,2.4,2.387,1.007,1.007,0,0,1-.354.767,5.252,5.252,0,0,1-3.425,1.262Z" transform="translate(0 -0.001)" fill="#ea2096"/>
  </g>
</svg>
