<svg xmlns="http://www.w3.org/2000/svg" width="150.459" height="150.459" viewBox="0 0 150.459 150.459">
    <g>
        <g>
            <path d="M47.018 0H0v47.018h47.018zm-9.4 37.615H9.4V9.4h28.215z"/>
            <path d="M0 0H10V10H0z" transform="translate(18.229 18.229)"/>
            <path d="M352 0v47.018h47.018V0zm37.615 37.615H361.4V9.4h28.211z" transform="translate(-248.559)"/>
            <path d="M0 0H10V10H0z" transform="translate(122.229 18.229)"/>
            <path d="M0 399.018h47.018V352H0zM9.4 361.4h28.215v28.211H9.4z" transform="translate(0 -248.559)"/>
            <path d="M0 0H10V10H0z" transform="translate(18.229 122.229)"/>
            <path d="M0 0H19V9H0z" transform="translate(75.229 .229)"/>
            <path d="M210.807 60.211h9.4v-9.4h9.4V41.4H201.4V32H192v18.807h18.807z" transform="translate(-135.578 -22.596)"/>
            <path d="M0 0H10V9H0z" transform="translate(56.229 38.229)"/>
            <path d="M229.615 160h-9.4v9.4H192v9.4h37.615z" transform="translate(-135.578 -112.982)"/>
            <path d="M9.4 220.211h9.4v-9.4H9.4V192H0v37.615h9.4z" transform="translate(0 -135.578)"/>
            <path d="M0 0H10V10H0z" transform="translate(18.229 56.229)"/>
            <path d="M124.211 229.615h18.807v-9.4h-9.4v-9.4h-18.811V192h-9.4v18.807H96v18.807h9.4v-9.4h18.807z" transform="translate(-67.789 -135.578)"/>
            <path d="M0 0H10V19H0z" transform="translate(84.229 75.229)"/>
            <path d="M220.211 352H192v9.4h18.807v28.211H192v9.4h28.211v-9.4h18.807v-9.4h-18.807z" transform="translate(-135.578 -248.559)"/>
            <path d="M0 0H10V10H0z" transform="translate(56.229 122.229)"/>
            <path d="M0 0H9V19H0z" transform="translate(94.229 103.229)"/>
            <path d="M412.211 416H384v28.211h9.4V425.4h18.807z" transform="translate(-271.156 -293.752)"/>
            <path d="M0 0H18V9H0z" transform="translate(132.229 141.229)"/>
            <path d="M0 0H9V10H0z" transform="translate(141.229 103.229)"/>
            <path d="M361.4 316.211h9.4V288H352v9.4h9.4z" transform="translate(-248.559 -203.367)"/>
            <path d="M380.211 201.4h-9.4V192h-9.4v9.4H352v9.4h37.615v-9.4h9.4V192h-18.804z" transform="translate(-248.559 -135.578)"/>
            <path d="M0 0H18V10H0z" transform="translate(132.229 84.229)"/>
        </g>
    </g>
</svg>
