<svg xmlns="http://www.w3.org/2000/svg" width="17.786" height="17.739" viewBox="0 0 17.786 17.739">
  <g id="statistics" transform="translate(0.023 0.003)">
    <path id="Path_30" d="M32.559,8.315a1.551,1.551,0,0,0,1.079-.438l1.538.769a1.528,1.528,0,0,0-.019.189,1.559,1.559,0,1,0,3.118,0,1.54,1.54,0,0,0-.156-.668L40.206,6.08a1.54,1.54,0,0,0,.668.156,1.561,1.561,0,0,0,1.559-1.559,1.536,1.536,0,0,0-.078-.462l1.813-1.359a1.558,1.558,0,1,0-.7-1.3,1.536,1.536,0,0,0,.078.462L41.736,3.38A1.552,1.552,0,0,0,39.47,5.345L37.384,7.432a1.532,1.532,0,0,0-1.747.282L34.1,6.945a1.527,1.527,0,0,0,.019-.189A1.559,1.559,0,1,0,32.56,8.315Zm0,0" transform="translate(-29.926)" fill="#ea2096"/>
    <path id="Path_31" d="M17.218,161.5h-.554V150.52a.519.519,0,0,0-.52-.52H14.065a.519.519,0,0,0-.52.52V161.5H12.506v-7.864a.519.519,0,0,0-.52-.52H9.908a.519.519,0,0,0-.52.52V161.5H8.349v-3.707a.519.519,0,0,0-.52-.52H5.751a.519.519,0,0,0-.52.52V161.5H4.192v-5.786a.519.519,0,0,0-.52-.52H1.594a.519.519,0,0,0-.52.52V161.5H.52a.52.52,0,1,0,0,1.039h16.7a.52.52,0,1,0,0-1.039Zm0,0" transform="translate(0 -144.803)" fill="#ea2096"/>
  </g>
</svg>
