<svg xmlns="http://www.w3.org/2000/svg" width="510" height="509.724" viewBox="0 0 510 509.724">
  <g id="banner" transform="translate(0 -0.138)">
    <g id="Group_1" data-name="Group 1">
      <path id="Path_1" data-name="Path 1" d="M287.4,261.226,255,195.579l-32.4,65.648-72.446,10.527,52.422,51.1L190.2,395.008,255,360.941l64.8,34.066-12.376-72.154,52.424-51.1Zm-7.445,78.942L255,327.048l-24.955,13.119,4.766-27.787L214.622,292.7l27.9-4.055L255,263.364l12.477,25.282,27.9,4.055-20.189,19.68Z" fill="#ea2096"/>
      <path id="Path_2" data-name="Path 2" d="M150,135.138H360v30H150Z" fill="#ea2096"/>
      <path id="Path_3" data-name="Path 3" d="M510,30.138H465v-30H45v30H0v30H45v30H90V509.862l165-66.55,165,66.55V90.138h45v-30h45ZM390,465.415l-135-54.45-135,54.45V90.138H390ZM435,60.138H75v-30H435Z" fill="#ea2096"/>
    </g>
  </g>
</svg>
