<svg xmlns="http://www.w3.org/2000/svg" width="14.243" height="16.203" viewBox="0 0 14.243 16.203">
  <g id="headphones" transform="translate(-30.999)">
    <g id="Group_13" transform="translate(32.899 6.646)">
      <g id="Group_12">
        <path id="Path_21" d="M92.424,210A1.426,1.426,0,0,0,91,211.424v3.861a1.424,1.424,0,0,0,2.848,0v-3.861A1.426,1.426,0,0,0,92.424,210Z" transform="translate(-91 -210)" fill="#ea2096"/>
      </g>
    </g>
    <g id="Group_15" transform="translate(31 7.67)">
      <g id="Group_14">
        <path id="Path_22" d="M31.949,242.766a2.355,2.355,0,0,1,.04-.4,1.421,1.421,0,0,0-.99,1.349v1.962a1.421,1.421,0,0,0,.99,1.349,2.355,2.355,0,0,1-.04-.4Z" transform="translate(-31 -242.366)" fill="#ea2096"/>
      </g>
    </g>
    <g id="Group_17" transform="translate(36.696 6.646)">
      <g id="Group_16">
        <path id="Path_23" d="M216.222,210a1.426,1.426,0,0,0-1.424,1.424v3.861a1.426,1.426,0,0,0,1.424,1.424,1.4,1.4,0,0,0,.408-.067,1.421,1.421,0,0,1-1.357,1.016h-1.512a1.424,1.424,0,1,0,0,.949h1.512a2.376,2.376,0,0,0,2.373-2.374v-4.81A1.426,1.426,0,0,0,216.222,210Z" transform="translate(-211 -210)" fill="#ea2096"/>
      </g>
    </g>
    <g id="Group_19" transform="translate(44.251 7.67)">
      <g id="Group_18">
        <path id="Path_24" d="M449.722,242.366a2.349,2.349,0,0,1,.04.4v3.861a2.352,2.352,0,0,1-.04.4,1.421,1.421,0,0,0,.99-1.349v-1.962a1.421,1.421,0,0,0-.99-1.35Z" transform="translate(-449.722 -242.366)" fill="#ea2096"/>
      </g>
    </g>
    <g id="Group_21" transform="translate(31)">
      <g id="Group_20">
        <path id="Path_25" d="M38.12,0A7.128,7.128,0,0,0,31,7.12v.012a2.351,2.351,0,0,1,.971-.441,6.164,6.164,0,0,1,12.3,0,2.351,2.351,0,0,1,.971.441V7.12A7.128,7.128,0,0,0,38.12,0Z" transform="translate(-31)" fill="#ea2096"/>
      </g>
    </g>
  </g>
</svg>
