<svg xmlns="http://www.w3.org/2000/svg" width="81.42" height="92.043" viewBox="0 0 81.42 92.043">
  <g id="Map_Scooter" data-name="Map Scooter" transform="translate(-86 -1657)">
    <g id="location" transform="translate(56.503 1657)">
      <ellipse id="Ellipse_45" cx="24" cy="24.5" rx="24" ry="24.5" transform="translate(46.207 16.521)" fill="#ea2096"/>
      <path id="Path_64" d="M98.993,11.923A40.71,40.71,0,1,0,61.542,80.488l8.666,11.555,8.666-11.555A40.712,40.712,0,0,0,98.993,11.923Zm-28.785-1.3a29.9,29.9,0,1,1-29.9,29.9,29.9,29.9,0,0,1,29.9-29.9Z" fill="#ea2096"/>
    </g>
    <g id="scooter" transform="translate(35.634 1683.165)">
      <g id="Group_6" data-name="Group 6" transform="translate(80.325)">
        <g id="Layer_1_117_" transform="translate(0)">
          <g id="Group_5" data-name="Group 5">
            <path id="Path_12" data-name="Path 12" d="M241.031,376.125a2.614,2.614,0,0,0-2.606,2.606v5.278a2.606,2.606,0,0,0,5.213,0v-5.278A2.614,2.614,0,0,0,241.031,376.125Z" transform="translate(-230.345 -356.902)" fill="#fafafa"/>
            <path id="Path_13" data-name="Path 13" d="M100.46,3.258H95.442a4.642,4.642,0,0,0-8.862,0H81.628a1.3,1.3,0,1,0,0,2.606h5.017a4.5,4.5,0,0,0,2.02,2.606,8.542,8.542,0,0,0-6.125,8.145v6.842a2.169,2.169,0,0,0,2.15,2.15H86.45V21.894a4.626,4.626,0,0,1,9.253,0v3.714h1.759a2.169,2.169,0,0,0,2.15-2.15V16.681a8.483,8.483,0,0,0-6.125-8.145,4.5,4.5,0,0,0,2.02-2.606h5.017a1.307,1.307,0,0,0,1.3-1.3A1.42,1.42,0,0,0,100.46,3.258ZM91.011,7.233a2.606,2.606,0,1,1,2.606-2.606A2.534,2.534,0,0,1,91.011,7.233Z" transform="translate(-80.325)" fill="#fafafa"/>
          </g>
        </g>
      </g>
    </g>
  </g>
</svg>
