<svg xmlns="http://www.w3.org/2000/svg" width="10.974" height="15.198" viewBox="0 0 10.974 15.198">
  <g id="scooter" transform="translate(-80.351 -0.002)">
    <g id="Layer_1_117_" transform="translate(80.325)">
      <g id="Group_1">
        <path id="Path_6" d="M239.758,376.125a1.337,1.337,0,0,0-1.333,1.333v2.7a1.334,1.334,0,0,0,2.667,0v-2.7a1.337,1.337,0,0,0-1.334-1.333Z" transform="translate(-234.292 -366.292)" fill="#ea2096"/>
        <path id="Path_7" d="M90.625,1.667H88.058a2.375,2.375,0,0,0-4.533,0H80.992a.667.667,0,0,0,0,1.333h2.567a2.3,2.3,0,0,0,1.033,1.333A4.37,4.37,0,0,0,81.458,8.5V12a1.11,1.11,0,0,0,1.1,1.1h.9V11.2a2.367,2.367,0,1,1,4.733,0v1.9h.9a1.11,1.11,0,0,0,1.1-1.1V8.533a4.339,4.339,0,0,0-3.132-4.167,2.3,2.3,0,0,0,1.032-1.333h2.567a.669.669,0,0,0,.667-.667.727.727,0,0,0-.7-.7ZM85.792,3.7a1.333,1.333,0,1,1,1.333-1.333A1.3,1.3,0,0,1,85.792,3.7Z" transform="translate(-80.325)" fill="#ea2096"/>
      </g>
    </g>
  </g>
</svg>
