<svg id="Glyph" xmlns="http://www.w3.org/2000/svg" width="14.471" height="14.472" viewBox="0 0 14.471 14.472">
  <path id="Path_32" d="M14.468,32H0v.6a1.206,1.206,0,0,0,1.206,1.206H3.015A1.206,1.206,0,0,0,4.221,32.6a1.206,1.206,0,0,0,1.206,1.206H9.044A1.206,1.206,0,0,0,10.25,32.6a1.206,1.206,0,0,0,1.206,1.206h1.809A1.206,1.206,0,0,0,14.471,32.6V32Z" transform="translate(0 -27.176)" fill="#ea2096"/>
  <path id="Path_33" d="M70.1,4.221,69.02.437A.6.6,0,0,0,68.441,0H65.679l.844,4.221Z" transform="translate(-55.779)" fill="#ea2096"/>
  <path id="Path_34" d="M5.405,0H2.644a.6.6,0,0,0-.58.437L.983,4.221H4.561Z" transform="translate(-0.835)" fill="#ea2096"/>
  <path id="Path_35" d="M36.593,0h-2.87l-.844,4.221h4.559Z" transform="translate(-27.923)" fill="#ea2096"/>
  <path id="Path_36" d="M14.853,45.4a1.8,1.8,0,0,1-1.206-.462,1.8,1.8,0,0,1-1.206.462H8.824a1.8,1.8,0,0,1-1.206-.462,1.8,1.8,0,0,1-1.206.462H4.6a1.8,1.8,0,0,1-.6-.106v6.738a.6.6,0,0,0,.6.6H5.809V47.208a.6.6,0,0,1,.6-.6H9.427a.6.6,0,0,1,.6.6v5.427h6.632a.6.6,0,0,0,.6-.6V45.293a1.8,1.8,0,0,1-.6.106Zm.6,3.618a.6.6,0,0,1-.6.6H11.838a.6.6,0,0,1-.6-.6v-1.81a.6.6,0,0,1,.6-.6h3.015a.6.6,0,0,1,.6.6Z" transform="translate(-3.397 -38.163)" fill="#ea2096"/>
</svg>
